<svg width="139" height="50" viewBox="0 0 139 50" fill="none" xmlns="http://www.w3.org/2000/svg">
<g clip-path="url(#clip0_1_5182)">
<path d="M15.3073 6.25H0.0625V42.7083L15.3073 6.25Z" fill="#E6E6E6"/>
<path d="M26.0352 6.25H41.2601V42.7083L26.0352 6.25Z" fill="#E6E6E6"/>
<path d="M20.6699 19.6875L30.3729 42.7086H24.0068L21.1068 35.3792H14.0059L20.6699 19.6875Z" fill="#E6E6E6"/>
<path d="M66.1294 29.4343L67.927 34.5887C67.9866 34.7178 68.076 34.7774 68.2349 34.7774H71.691C71.8797 34.7774 71.9095 34.688 71.8797 34.4993L64.739 14.6662C64.7092 14.5073 64.6794 14.4775 64.5205 14.4775H60.2301C60.111 14.4775 60.0414 14.5669 60.0414 14.696C59.9818 15.7388 59.8925 16.0566 59.7634 16.3645L53.3973 34.4695C53.3675 34.688 53.437 34.7774 53.6158 34.7774H56.7045C56.8932 34.7774 56.9826 34.7178 57.0521 34.5291L58.7503 29.4343H66.1294ZM59.7336 26.0675C60.6671 23.247 61.8986 19.632 62.3952 17.5662H62.425C63.0407 19.7313 64.4907 24.0217 65.1462 26.0675H59.7336Z" fill="#E6E6E6"/>
<path d="M81.0578 35.0843C82.915 35.0843 84.8913 34.7467 86.8975 33.8826C87.0564 33.823 87.0862 33.7535 87.0862 33.6046C87.0266 33.0484 86.9571 32.244 86.9571 31.6282V12.9571C86.9571 12.8379 86.9571 12.7783 86.8081 12.7783H83.4413C83.3122 12.7783 83.2526 12.8379 83.2526 12.9968V19.3231C82.7263 19.2636 82.3588 19.2338 81.9218 19.2338C76.4893 19.2338 73.1523 22.819 73.1523 27.2981C73.1523 32.4922 76.5787 35.0843 81.0578 35.0843ZM83.2526 31.6282C82.6965 31.807 82.0807 31.8765 81.455 31.8765C78.992 31.8765 76.976 30.4861 76.976 27.1094C76.976 24.12 79.0516 22.3522 81.8026 22.3522C82.3588 22.3522 82.8454 22.4118 83.2526 22.5707V31.6282Z" fill="#E6E6E6"/>
<path d="M97.8265 19.2334C93.1885 19.2334 90.3184 22.7889 90.3184 27.1786C90.3184 31.1015 92.6026 35.084 97.757 35.084C102.117 35.084 105.176 31.8761 105.176 27.0792C105.176 22.8484 102.584 19.2334 97.8265 19.2334ZM97.6378 22.3519C100.26 22.3519 101.372 24.6063 101.372 27.1786C101.372 30.3566 99.7334 31.9357 97.8265 31.9357C95.4728 31.9357 94.0824 29.9594 94.0824 27.109C94.0824 24.1793 95.5622 22.3519 97.6378 22.3519Z" fill="#E6E6E6"/>
<path d="M108.658 12.7783C108.529 12.7783 108.439 12.8379 108.439 12.9968V34.1309C108.439 34.2203 108.529 34.3792 108.658 34.409C110.138 34.8659 111.687 35.0843 113.286 35.0843C117.864 35.0843 122.314 32.244 122.314 26.5234C122.314 22.382 119.473 19.2338 115.024 19.2338C114.001 19.2338 113.048 19.3927 112.213 19.6707L112.174 13.0266C112.174 12.8081 112.114 12.7783 111.896 12.7783H108.658ZM118.51 26.9008C118.51 30.3272 116.166 31.9361 113.634 31.9361C113.107 31.9361 112.64 31.9063 112.213 31.7772V22.7594C112.7 22.5707 113.286 22.4118 114.369 22.4118C116.812 22.4118 118.51 23.9611 118.51 26.9008Z" fill="#E6E6E6"/>
<path d="M134.879 28.0128C136.388 28.0128 137.63 27.983 138.057 27.8837C138.216 27.8539 138.275 27.7943 138.305 27.6652C138.394 27.3275 138.434 26.6224 138.434 25.7584C138.434 22.8187 136.666 19.2334 132.098 19.2334C127.43 19.2334 124.838 23.0371 124.838 27.3275C124.838 31.1313 126.844 35.084 132.465 35.084C134.571 35.084 135.931 34.7463 137.103 34.1902C137.222 34.1306 137.282 34.0313 137.282 33.8525V31.2802C137.282 31.1313 137.193 31.1015 137.103 31.1611C135.931 31.6576 134.66 31.9059 133.27 31.9059C130.121 31.9059 128.691 30.1679 128.602 28.0128H134.879ZM128.602 25.3512C128.85 23.8416 129.804 22.2029 131.939 22.2029C134.293 22.2029 134.908 24.1793 134.908 25.0731C134.908 25.1029 134.908 25.232 134.908 25.3214C134.779 25.3512 134.382 25.3512 133.21 25.3512H128.602Z" fill="#E6E6E6"/>
</g>
<defs>
<clipPath id="clip0_1_5182">
<rect width="138.542" height="50" fill="white" transform="translate(0.0625)"/>
</clipPath>
</defs>
</svg>
