<svg width="116" height="50" viewBox="0 0 116 50" fill="none" xmlns="http://www.w3.org/2000/svg">
<g clip-path="url(#clip0_1_5178)">
<path fill-rule="evenodd" clip-rule="evenodd" d="M71.4732 39.3812C64.8445 44.2671 55.2366 46.8739 46.9643 46.8739C35.3653 46.8739 24.9233 42.5838 17.0234 35.4486C16.4028 34.8876 16.9589 34.1229 17.7037 34.5598C26.2291 39.5202 36.7705 42.5044 47.6595 42.5044C55.0032 42.5044 63.0818 40.985 70.5099 37.832C71.6321 37.3553 72.5705 38.5669 71.4732 39.3812Z" fill="#E6E6E6"/>
<path fill-rule="evenodd" clip-rule="evenodd" d="M74.229 36.2282C73.3849 35.1458 68.6282 35.7168 66.4931 35.97C65.8426 36.0495 65.7433 35.4834 66.3292 35.0763C70.1178 32.4099 76.3343 33.1795 77.0593 34.0733C77.7842 34.972 76.8706 41.2035 73.3105 44.1777C72.7643 44.6345 72.2429 44.3912 72.4862 43.7855C73.2856 41.7894 75.0781 37.3156 74.229 36.2282Z" fill="#E6E6E6"/>
<path fill-rule="evenodd" clip-rule="evenodd" d="M66.6437 16.2538V13.6619C66.6437 13.2696 66.9416 13.0065 67.2991 13.0065H78.9031C79.2755 13.0065 79.5734 13.2746 79.5734 13.6619V15.8814C79.5684 16.2538 79.2556 16.7404 78.6995 17.51L72.6865 26.0951C74.9209 26.0405 77.2794 26.3731 79.3053 27.5152C79.7621 27.7733 79.8862 28.1507 79.921 28.5231V31.2888C79.921 31.6662 79.5039 32.1081 79.0669 31.8797C75.4968 30.0077 70.755 29.8042 66.8075 31.8995C66.4053 32.118 65.9833 31.6811 65.9833 31.3037V28.677C65.9833 28.255 65.9882 27.535 66.4103 26.8945L73.3767 16.9042H67.314C66.9416 16.9042 66.6437 16.6411 66.6437 16.2538Z" fill="#E6E6E6"/>
<path fill-rule="evenodd" clip-rule="evenodd" d="M24.3142 32.4259H20.7839C20.4462 32.4011 20.1781 32.1478 20.1533 31.8251V13.7066C20.1533 13.3441 20.4561 13.0562 20.8335 13.0562H24.1255C24.4681 13.071 24.7412 13.3342 24.7661 13.6619V16.0304H24.8306C25.6896 13.7414 27.3033 12.6738 29.4781 12.6738C31.6877 12.6738 33.0681 13.7414 34.0611 16.0304C34.9152 13.7414 36.8566 12.6738 38.9371 12.6738C40.4168 12.6738 42.0355 13.2846 43.0236 14.655C44.1408 16.1793 43.9124 18.3939 43.9124 20.3353L43.9074 31.7705C43.9074 32.1329 43.6045 32.4259 43.2271 32.4259H39.7018C39.3492 32.4011 39.0662 32.118 39.0662 31.7705V22.1675C39.0662 21.4029 39.1357 19.4962 38.9669 18.7712C38.7037 17.5547 37.9142 17.2121 36.8914 17.2121C36.0373 17.2121 35.1436 17.7831 34.7811 18.6968C34.4187 19.6104 34.4534 21.1397 34.4534 22.1675V31.7705C34.4534 32.1329 34.1505 32.4259 33.7732 32.4259H30.2478C29.8903 32.4011 29.6122 32.118 29.6122 31.7705L29.6073 22.1675C29.6073 20.1466 29.9399 17.1724 27.4324 17.1724C24.8952 17.1724 24.9945 20.0722 24.9945 22.1675V31.7705C24.9945 32.1329 24.6916 32.4259 24.3142 32.4259Z" fill="#E6E6E6"/>
<path fill-rule="evenodd" clip-rule="evenodd" d="M89.5635 12.6738C94.8019 12.6738 97.6371 17.1724 97.6371 22.8925C97.6371 28.4189 94.504 32.8033 89.5635 32.8033C84.4194 32.8033 81.619 28.3047 81.619 22.6988C81.619 17.0582 84.4542 12.6738 89.5635 12.6738ZM89.5933 16.373C86.9914 16.373 86.8276 19.9182 86.8276 22.1278C86.8276 24.3423 86.7928 29.0693 89.5635 29.0693C92.2994 29.0693 92.4285 25.256 92.4285 22.9322C92.4285 21.4029 92.3639 19.5756 91.9022 18.1258C91.5049 16.8646 90.7154 16.373 89.5933 16.373Z" fill="#E6E6E6"/>
<path fill-rule="evenodd" clip-rule="evenodd" d="M104.43 32.4259H100.914C100.562 32.4011 100.279 32.118 100.279 31.7705L100.274 13.647C100.304 13.3143 100.597 13.0562 100.954 13.0562H104.226C104.534 13.071 104.787 13.2796 104.857 13.5626V16.3333H104.921C105.909 13.8556 107.295 12.6738 109.733 12.6738C111.317 12.6738 112.861 13.2448 113.854 14.8089C114.778 16.2588 114.778 18.6968 114.778 20.4495V31.8549C114.738 32.1727 114.445 32.4259 114.097 32.4259H110.557C110.234 32.4011 109.966 32.1627 109.931 31.8549V22.0136C109.931 20.0324 110.16 17.1327 107.722 17.1327C106.863 17.1327 106.073 17.7087 105.681 18.5826C105.185 19.6898 105.12 20.7921 105.12 22.0136V31.7705C105.115 32.1329 104.807 32.4259 104.43 32.4259Z" fill="#E6E6E6"/>
<path fill-rule="evenodd" clip-rule="evenodd" d="M57.3933 23.7713C57.3933 25.1467 57.428 26.2937 56.7329 27.5152C56.1718 28.5082 55.2781 29.119 54.29 29.119C52.9344 29.119 52.14 28.0862 52.14 26.5618C52.14 23.5528 54.8361 23.0066 57.3933 23.0066V23.7713ZM60.9534 32.3762C60.7201 32.5848 60.3824 32.5997 60.1193 32.4606C58.9474 31.4874 58.7339 31.0356 58.0934 30.1071C56.1569 32.0833 54.7815 32.6741 52.274 32.6741C49.2998 32.6741 46.9909 30.8419 46.9909 27.1726C46.9909 24.3076 48.5401 22.3562 50.7546 21.4028C52.6713 20.5587 55.3476 20.4098 57.3933 20.1764V19.7196C57.3933 18.8804 57.4578 17.8874 56.9613 17.1624C56.5343 16.512 55.71 16.2439 54.9801 16.2439C53.6345 16.2439 52.4379 16.934 52.1449 18.3641C52.0854 18.6818 51.852 18.9947 51.5292 19.0095L48.1081 18.6421C47.8201 18.5776 47.4974 18.3442 47.5818 17.9023C48.3663 13.7513 52.1201 12.5 55.4767 12.5C57.1947 12.5 59.439 12.9568 60.7945 14.2577C62.5125 15.8615 62.3487 18.0016 62.3487 20.3303V25.8319C62.3487 27.4854 63.0339 28.2103 63.6794 29.1041C63.9028 29.4218 63.9525 29.8042 63.6645 30.0425C62.9445 30.6433 61.6635 31.7605 60.9584 32.3861L60.9534 32.3762Z" fill="#E6E6E6"/>
<path fill-rule="evenodd" clip-rule="evenodd" d="M11.1113 23.7713C11.1113 25.1467 11.1461 26.2937 10.451 27.5151C9.88987 28.5082 9.00108 29.1189 8.00801 29.1189C6.65248 29.1189 5.86299 28.0862 5.86299 26.5618C5.86299 23.5528 8.55916 23.0066 11.1113 23.0066V23.7713ZM14.6715 32.3762C14.4381 32.5847 14.1005 32.5996 13.8373 32.4606C12.6655 31.4874 12.4569 31.0356 11.8115 30.107C9.87498 32.0832 8.50455 32.6741 5.99209 32.6741C3.02282 32.6741 0.708984 30.8419 0.708984 27.1725C0.708984 24.3075 2.26313 22.3562 4.4727 21.4028C6.38932 20.5587 9.06563 20.4098 11.1113 20.1764V19.7196C11.1113 18.8804 11.1759 17.8874 10.6843 17.1624C10.2523 16.512 9.4281 16.2439 8.70316 16.2439C7.35756 16.2439 6.15595 16.934 5.86299 18.364C5.80341 18.6818 5.57004 18.9946 5.25226 19.0095L1.82618 18.6421C1.53819 18.5776 1.22041 18.3442 1.29986 17.9023C2.08934 13.7513 5.83816 12.5 9.19473 12.5C10.9127 12.5 13.1571 12.9568 14.5126 14.2577C16.2306 15.8615 16.0667 18.0016 16.0667 20.3303V25.8319C16.0667 27.4854 16.752 28.2103 17.3974 29.1041C17.6259 29.4218 17.6755 29.8042 17.3875 30.0425C16.6675 30.6433 15.3865 31.7605 14.6814 32.3861L14.6715 32.3762Z" fill="#E6E6E6"/>
</g>
<defs>
<clipPath id="clip0_1_5178">
<rect width="114.583" height="50" fill="white" transform="translate(0.708984)"/>
</clipPath>
</defs>
</svg>
