<svg width="146" height="50" viewBox="0 0 146 50" fill="none" xmlns="http://www.w3.org/2000/svg">
<g clip-path="url(#clip0_1_5165)">
<path d="M22.0375 3.20703C9.95632 3.20703 0.162109 13.001 0.162109 25.0822C0.162109 37.1639 9.95632 46.957 22.0375 46.957C34.12 46.957 43.9132 37.1639 43.9132 25.0822C43.9132 13.0018 34.12 3.20808 22.0373 3.20808L22.0375 3.20703ZM32.0694 34.7572C31.6776 35.3999 30.8365 35.6036 30.1939 35.2092C25.0578 32.0719 18.592 31.3614 10.9774 33.1011C10.2437 33.2683 9.51225 32.8085 9.34506 32.0745C9.1771 31.3405 9.63502 30.6091 10.3706 30.4419C18.7036 28.5381 25.8513 29.3578 31.6175 32.8817C32.2601 33.2761 32.4639 34.1146 32.0694 34.7572ZM34.747 28.8009C34.2532 29.6034 33.2031 29.8568 32.4012 29.363C26.5211 25.7488 17.5578 24.7021 10.6028 26.8133C9.70085 27.0857 8.74817 26.5774 8.47441 25.677C8.20275 24.775 8.71134 23.8241 9.61177 23.5498C17.5563 21.1393 27.4328 22.307 34.1853 26.4564C34.9873 26.9501 35.2407 28.0003 34.747 28.8012V28.8009ZM34.9768 22.5985C27.9265 18.4109 16.2943 18.0258 9.56292 20.0688C8.48199 20.3967 7.33889 19.7864 7.01132 18.7055C6.68375 17.6241 7.29344 16.4817 8.37515 16.1531C16.1023 13.8074 28.9479 14.2606 37.065 19.0793C38.0394 19.6564 38.3581 20.912 37.7808 21.883C37.2061 22.8553 35.947 23.1758 34.9779 22.5985H34.9768ZM59.6779 23.4009C55.9006 22.5003 55.2293 21.8681 55.2293 20.5398C55.2293 19.2849 56.41 18.4404 58.168 18.4404C59.8712 18.4404 61.5587 19.0817 63.3297 20.4019C63.382 20.4418 63.4499 20.4578 63.5152 20.4473C63.5831 20.4374 63.6406 20.4011 63.6798 20.3465L65.524 17.7468C65.5997 17.6397 65.5788 17.4921 65.477 17.4104C63.3689 15.7195 60.997 14.8974 58.2229 14.8974C54.1452 14.8974 51.2953 17.3448 51.2953 20.8465C51.2953 24.6015 53.7534 25.9311 58.0008 26.9575C61.6135 27.79 62.2248 28.4874 62.2248 29.734C62.2248 31.1158 60.9918 31.9752 59.0065 31.9752C56.8018 31.9752 55.002 31.2308 52.9906 29.491C52.941 29.4466 52.8731 29.4283 52.8104 29.431C52.7425 29.4362 52.6824 29.4675 52.6406 29.5172L50.5717 31.9779C50.4855 32.0823 50.496 32.2339 50.5952 32.3227C52.9358 34.4124 55.8144 35.5148 58.9229 35.5148C63.3167 35.5148 66.1561 33.1142 66.1561 29.397C66.164 26.2605 64.2858 24.5234 59.6857 23.4043L59.6779 23.4009ZM76.0982 19.6759C74.1939 19.6759 72.6318 20.4262 71.3414 21.9634V20.2331C71.3414 20.0965 71.2317 19.9852 71.0958 19.9852H67.713C67.5772 19.9852 67.4675 20.0965 67.4675 20.2331V39.4592C67.4675 39.5951 67.5772 39.7074 67.713 39.7074H71.0958C71.2317 39.7074 71.3414 39.5951 71.3414 39.4592V33.3911C72.6318 34.8356 74.1939 35.5435 76.0982 35.5435C79.6377 35.5435 83.2217 32.819 83.2217 27.6105C83.2269 22.401 79.643 19.6757 76.1008 19.6757L76.0982 19.6759ZM79.2877 27.6105C79.2877 30.2616 77.6551 32.1137 75.3145 32.1137C73.0027 32.1137 71.2578 30.1781 71.2578 27.6105C71.2578 25.0427 73.0027 23.1076 75.3145 23.1076C77.6159 23.1073 79.2877 25.0007 79.2877 27.6103V27.6105ZM92.4036 19.6759C87.8453 19.6759 84.2744 23.1857 84.2744 27.6672C84.2744 32.1006 87.8218 35.5723 92.3487 35.5723C96.9227 35.5723 100.504 32.0745 100.504 27.6105C100.504 23.1617 96.9462 19.6765 92.4036 19.6765V19.6759ZM92.4036 32.1398C89.9795 32.1398 88.1509 30.1911 88.1509 27.6092C88.1509 25.0156 89.9168 23.1335 92.3487 23.1335C94.7885 23.1335 96.6275 25.0814 96.6275 27.6659C96.6275 30.259 94.8512 32.1398 92.4036 32.1398ZM110.237 19.9852H106.515V16.1803C106.515 16.0439 106.405 15.9327 106.269 15.9327H102.886C102.751 15.9327 102.638 16.0439 102.638 16.1803V19.9852H101.013C100.878 19.9852 100.768 20.0965 100.768 20.2331V23.1397C100.768 23.2761 100.878 23.3876 101.013 23.3876H102.638V30.9095C102.638 33.9475 104.151 35.4887 107.136 35.4887C108.349 35.4887 109.354 35.2379 110.302 34.6998C110.381 34.658 110.428 34.5744 110.428 34.4856V31.7166C110.428 31.6331 110.383 31.5521 110.31 31.5077C110.237 31.4606 110.146 31.458 110.07 31.4972C109.42 31.8237 108.79 31.9752 108.085 31.9752C107.001 31.9752 106.515 31.4815 106.515 30.3792V23.3889H110.237C110.373 23.3889 110.483 23.2776 110.483 23.141V20.2347C110.488 20.0981 110.378 19.9868 110.24 19.9868L110.237 19.9852ZM123.204 20.0001V19.5328C123.204 18.158 123.732 17.5449 124.913 17.5449C125.618 17.5449 126.185 17.6849 126.819 17.8965C126.898 17.9211 126.979 17.9088 127.041 17.862C127.107 17.8153 127.143 17.7403 127.143 17.6609V14.811C127.143 14.702 127.075 14.6057 126.968 14.5735C126.3 14.3742 125.443 14.1697 124.158 14.1697C121.036 14.1697 119.382 15.9287 119.382 19.2549V19.9706H117.758C117.622 19.9706 117.51 20.0819 117.51 20.2182V23.1397C117.51 23.2761 117.622 23.3876 117.758 23.3876H119.382V34.9871C119.382 35.1256 119.495 35.2353 119.631 35.2353H123.011C123.149 35.2353 123.259 35.1256 123.259 34.9871V23.3884H126.417L131.255 34.9871C130.706 36.2044 130.166 36.4473 129.429 36.4473C128.833 36.4473 128.204 36.2697 127.564 35.9171C127.504 35.8857 127.431 35.8805 127.368 35.8988C127.303 35.9223 127.248 35.9693 127.222 36.032L126.075 38.5476C126.02 38.6677 126.067 38.8062 126.182 38.8689C127.378 39.5167 128.457 39.7936 129.792 39.7936C132.289 39.7936 133.671 38.6285 134.886 35.4991L140.753 20.3387C140.784 20.2624 140.774 20.1762 140.727 20.1085C140.682 20.0414 140.607 20.0009 140.526 20.0009H137.004C136.897 20.0009 136.803 20.068 136.769 20.167L133.162 30.468L129.212 20.1602C129.176 20.0644 129.084 20.0009 128.982 20.0009H123.204V20.0001ZM115.686 19.9852H112.303C112.168 19.9852 112.055 20.0965 112.055 20.2331V34.9871C112.055 35.1256 112.168 35.2353 112.303 35.2353H115.686C115.822 35.2353 115.934 35.1256 115.934 34.9871V20.2342C115.934 20.0976 115.825 19.9863 115.686 19.9863V19.9852ZM114.014 13.2669C112.674 13.2669 111.588 14.3515 111.588 15.6913C111.588 17.0319 112.674 18.1178 114.014 18.1178C115.354 18.1178 116.439 17.0319 116.439 15.6913C116.439 14.3517 115.352 13.2669 114.014 13.2669ZM143.642 24.7293C142.305 24.7293 141.262 23.6543 141.262 22.349C141.262 21.0437 142.318 19.9565 143.655 19.9565C144.993 19.9565 146.035 21.0312 146.035 22.3354C146.035 23.6407 144.98 24.7293 143.642 24.7293ZM143.655 20.1932C142.435 20.1932 141.513 21.1623 141.513 22.349C141.513 23.5352 142.43 24.4913 143.642 24.4913C144.862 24.4913 145.784 23.5229 145.784 22.3354C145.784 21.1492 144.867 20.1932 143.655 20.1932ZM144.183 22.5802L144.857 23.5227H144.287L143.681 22.658H143.161V23.5227H142.686V21.0244H143.799C144.381 21.0244 144.763 21.3214 144.763 21.8213C144.765 22.2309 144.528 22.4812 144.185 22.5802H144.183ZM143.781 21.453H143.161V22.2432H143.781C144.089 22.2432 144.274 22.092 144.274 21.8477C144.274 21.5907 144.089 21.453 143.781 21.453Z" fill="#E6E6E6"/>
</g>
<defs>
<clipPath id="clip0_1_5165">
<rect width="145.833" height="50" fill="white" transform="translate(0.0839844)"/>
</clipPath>
</defs>
</svg>
