<svg width="81" height="40" viewBox="0 0 81 40" fill="none" xmlns="http://www.w3.org/2000/svg">
<g clip-path="url(#clip0_1_12160)">
<path d="M0.333984 29.4959L8.54601 16.7178H1.30681C1.24546 16.3497 1.21917 15.9465 1.21917 15.4995C1.21917 15.0701 1.24546 14.6757 1.30681 14.3164H13.0245L13.1735 14.7108L4.90012 27.5152H12.6564C12.7178 27.9184 12.7441 28.339 12.7441 28.7597C12.7441 29.1629 12.7178 29.5485 12.6564 29.9166H0.482975L0.333984 29.4959Z" fill="#E6E6E6"/>
<path d="M24.0324 19.6364C24.0324 18.4357 23.7256 17.6119 23.1209 17.1386C22.5162 16.6741 21.631 16.4375 20.4741 16.4375C19.7642 16.4375 19.0981 16.4901 18.4846 16.604C17.8624 16.7179 17.2664 16.8581 16.6705 17.0422C16.2848 16.3761 16.092 15.5698 16.092 14.6408C16.7844 14.4217 17.5381 14.2464 18.3707 14.1237C19.2033 14.001 20.0008 13.9397 20.7721 13.9397C22.7966 13.9397 24.3391 14.4042 25.3996 15.3244C26.4513 16.2447 26.9859 17.7258 26.9859 19.7503V29.5136C26.276 29.6714 25.4171 29.8467 24.4005 30.0132C23.3838 30.1885 22.3496 30.2673 21.2979 30.2673C20.3076 30.2673 19.4049 30.1797 18.6073 29.9956C17.8098 29.8116 17.1262 29.5224 16.5653 29.1105C16.0044 28.7073 15.5749 28.1902 15.2682 27.5592C14.9614 26.9282 14.8125 26.1657 14.8125 25.2805C14.8125 24.4129 14.9877 23.6416 15.3471 22.9843C15.6976 22.327 16.1797 21.7748 16.7932 21.3454C17.3979 20.9072 18.099 20.5829 18.8966 20.3726C19.6853 20.1622 20.5179 20.0483 21.3944 20.0483C22.0429 20.0483 22.5775 20.0658 22.9894 20.0921C23.4013 20.1184 23.7519 20.1622 24.0411 20.1973V19.6364H24.0324ZM24.0324 22.5899C23.7256 22.5461 23.34 22.511 22.8755 22.4672C22.411 22.4234 22.0166 22.4059 21.6923 22.4059C20.4303 22.4059 19.475 22.6425 18.8177 23.107C18.1604 23.5715 17.8273 24.2814 17.8273 25.2367C17.8273 25.8414 17.9413 26.3235 18.1604 26.6653C18.3795 27.0071 18.6599 27.27 18.993 27.454C19.326 27.6381 19.6941 27.752 20.106 27.7871C20.5092 27.8309 20.8948 27.8484 21.2629 27.8484C21.7274 27.8484 22.2094 27.8221 22.709 27.7695C23.2085 27.717 23.6467 27.6469 24.0324 27.5417V22.5899Z" fill="#E6E6E6"/>
<path d="M30.2724 14.317C30.474 14.2732 30.6843 14.2469 30.8946 14.2294C31.105 14.2119 31.3241 14.2031 31.552 14.2031C31.7535 14.2031 31.9639 14.2119 32.1917 14.2294C32.4108 14.2469 32.6299 14.282 32.8315 14.317C32.8491 14.3608 32.8753 14.4835 32.9104 14.6939C32.9367 14.9042 32.9718 15.1321 32.998 15.3775C33.0243 15.6229 33.0594 15.8508 33.0857 16.0786C33.112 16.3065 33.1295 16.4467 33.1295 16.5081C33.3311 16.1838 33.5765 15.8683 33.8569 15.5615C34.1374 15.2548 34.4792 14.9831 34.8736 14.7377C35.268 14.4923 35.7149 14.2995 36.2145 14.1593C36.7141 14.019 37.2662 13.9489 37.8709 13.9489C38.7824 13.9489 39.6325 14.0979 40.4125 14.4047C41.1925 14.7114 41.8586 15.1759 42.4195 15.8157C42.9804 16.4555 43.4099 17.2706 43.7254 18.2521C44.0409 19.2337 44.1987 20.3994 44.1987 21.7403C44.1987 24.4221 43.4712 26.5168 42.0251 28.0242C40.5703 29.5316 38.5195 30.2941 35.8639 30.2941C35.417 30.2941 34.9612 30.2678 34.4967 30.2065C34.0322 30.1451 33.6203 30.0663 33.2785 29.9611V37.1126C33.0331 37.1565 32.7789 37.1828 32.4985 37.2003C32.2268 37.2178 31.9726 37.2266 31.7535 37.2266C31.5344 37.2266 31.2803 37.2178 31.0086 37.2003C30.7369 37.1828 30.4827 37.1477 30.2636 37.1126V14.317H30.2724ZM33.2873 27.3669C33.6729 27.5071 34.0673 27.6123 34.4704 27.6736C34.8736 27.735 35.3994 27.7613 36.0567 27.7613C36.7842 27.7613 37.459 27.6473 38.0637 27.4107C38.6685 27.1741 39.1943 26.8147 39.6325 26.3327C40.0707 25.8419 40.4125 25.2284 40.6667 24.4922C40.9209 23.756 41.0436 22.8709 41.0436 21.863C41.0436 20.2416 40.7456 18.9533 40.1496 17.998C39.5536 17.0427 38.5721 16.5694 37.2136 16.5694C36.7053 16.5694 36.2233 16.6571 35.75 16.8411C35.2855 17.0252 34.8648 17.2968 34.5055 17.6649C34.1374 18.033 33.8482 18.4888 33.6203 19.0497C33.3924 19.6106 33.2873 20.2679 33.2873 21.0392V27.3669Z" fill="#E6E6E6"/>
<path d="M47.9497 16.6827H45.969C45.9252 16.5162 45.8989 16.3321 45.8814 16.1218C45.8638 15.9114 45.8551 15.7011 45.8551 15.4995C45.8551 15.298 45.8638 15.0876 45.8814 14.8773C45.8989 14.6669 45.9339 14.4741 45.969 14.3164H50.9032V29.9254C50.6841 29.9692 50.43 29.9955 50.1583 30.013C49.8866 30.0305 49.6324 30.0393 49.4133 30.0393C49.2117 30.0393 48.9751 30.0305 48.6947 30.013C48.423 29.9955 48.1688 29.9604 47.9497 29.9254V16.6827Z" fill="#E6E6E6"/>
<path d="M57.3799 22.8618C57.4238 24.5621 57.862 25.8154 58.7033 26.6041C59.5447 27.3929 60.7892 27.7873 62.4281 27.7873C63.8654 27.7873 65.2414 27.5331 66.5385 27.0248C66.705 27.3316 66.8365 27.6997 66.9329 28.1379C67.0381 28.5761 67.0906 29.0055 67.1169 29.435C66.4509 29.7154 65.7147 29.9345 64.9084 30.0747C64.1108 30.215 63.2169 30.2851 62.2441 30.2851C60.8243 30.2851 59.606 30.0835 58.5894 29.6891C57.5728 29.2947 56.7402 28.7338 56.0828 28.0152C55.4255 27.2965 54.9435 26.4464 54.6368 25.456C54.33 24.4744 54.181 23.3964 54.181 22.2133C54.181 21.0564 54.33 19.9784 54.6192 18.9705C54.9084 17.9627 55.3642 17.095 55.9689 16.35C56.5736 15.6139 57.3449 15.0179 58.2651 14.5884C59.1854 14.1502 60.2809 13.9311 61.5342 13.9311C62.6122 13.9311 63.5499 14.1152 64.365 14.4833C65.1801 14.8514 65.8549 15.3509 66.407 15.9907C66.9504 16.6305 67.3711 17.393 67.6515 18.2694C67.932 19.1546 68.081 20.1099 68.081 21.144C68.081 21.4245 68.0722 21.7312 68.0459 22.038C68.0284 22.3535 68.0021 22.6252 67.9846 22.8443H57.3799V22.8618ZM65.1099 20.6094C65.1099 20.0398 65.0311 19.4964 64.8821 18.9793C64.7331 18.4622 64.5052 18.0152 64.216 17.6296C63.918 17.244 63.5499 16.9372 63.0942 16.7006C62.6384 16.464 62.0951 16.35 61.464 16.35C60.2283 16.35 59.2818 16.7269 58.6157 17.4719C57.9584 18.2256 57.5552 19.2685 57.415 20.6094H65.1099Z" fill="#E6E6E6"/>
<path d="M71.4114 14.3164C71.6305 14.2725 71.8496 14.2463 72.0512 14.2287C72.2528 14.2112 72.4631 14.2024 72.691 14.2024C72.9101 14.2024 73.138 14.2112 73.3571 14.2287C73.5762 14.2463 73.7865 14.2813 73.9618 14.3164C74.0232 14.6231 74.0845 15.0175 74.1459 15.5171C74.2072 16.0166 74.2335 16.4373 74.2335 16.7791C74.6629 16.0867 75.2239 15.4908 75.925 14.9824C76.6261 14.4741 77.5201 14.22 78.6156 14.22C78.7821 14.22 78.9486 14.2287 79.1151 14.2375C79.2904 14.2463 79.4307 14.2638 79.5534 14.2813C79.5972 14.4654 79.6235 14.6582 79.641 14.8597C79.6585 15.0613 79.6673 15.2717 79.6673 15.4995C79.6673 15.7449 79.6498 15.9991 79.6235 16.262C79.5972 16.5249 79.5534 16.7791 79.5183 17.0245C79.3518 16.9807 79.1853 16.9632 79.0187 16.9632C78.8435 16.9632 78.712 16.9632 78.6068 16.9632C78.0634 16.9632 77.5376 17.042 77.038 17.191C76.5385 17.34 76.0915 17.6117 75.6971 17.9973C75.3027 18.3829 74.9872 18.9088 74.7506 19.5836C74.514 20.2497 74.4 21.1174 74.4 22.1691V29.9254C74.1809 29.9692 73.9268 29.9955 73.6551 30.013C73.3834 30.0305 73.1292 30.0393 72.9101 30.0393C72.691 30.0393 72.4368 30.0305 72.1652 30.013C71.8935 29.9955 71.6305 29.9604 71.3851 29.9254V14.3164H71.4114Z" fill="#E6E6E6"/>
<path d="M53.769 5.13185H50.8242L52.9101 3.04598C52.7436 2.81811 52.5595 2.59901 52.3667 2.39743C52.1652 2.19585 51.9548 2.01181 51.7182 1.85405L49.6323 3.93993V0.995162C49.3606 0.951341 49.0802 0.925049 48.7909 0.925049H48.7822C48.493 0.925049 48.2125 0.951341 47.9408 0.995162V3.93993L45.8549 1.85405C45.6271 2.02057 45.408 2.20462 45.2064 2.39743C45.0048 2.59901 44.8295 2.80935 44.663 3.04598L46.7577 5.13185H43.8129C43.8129 5.13185 43.7428 5.684 43.7428 5.97321C43.7428 6.26243 43.7691 6.54289 43.8129 6.81458H46.7577L44.6718 8.90045C44.9961 9.35619 45.3992 9.75934 45.8637 10.0924L47.9496 8.0065V10.9513C48.2213 10.9951 48.5017 11.0214 48.7909 11.0214H48.7997C49.0889 11.0214 49.3694 10.9951 49.6411 10.9513V8.0065L51.7269 10.0924C51.9548 9.92586 52.1739 9.74181 52.3755 9.549C52.5771 9.34742 52.7611 9.13708 52.9189 8.90045L50.833 6.81458H53.7778C53.8216 6.54289 53.8479 6.26243 53.8479 5.97321V5.96445C53.8391 5.684 53.8216 5.40354 53.769 5.13185ZM50.053 5.98198C50.053 6.35884 49.9829 6.71817 49.8602 7.05121C49.5271 7.17391 49.1678 7.24402 48.7909 7.24402C48.4141 7.24402 48.0548 7.17391 47.7217 7.05121C47.599 6.71817 47.5289 6.35884 47.5289 5.98198V5.97321C47.5289 5.59635 47.599 5.23702 47.7217 4.90399C48.0548 4.78129 48.4141 4.71117 48.7909 4.71117C49.1678 4.71117 49.5271 4.78129 49.8602 4.90399C49.9829 5.23702 50.053 5.59635 50.053 5.98198Z" fill="#E6E6E6"/>
</g>
<defs>
<clipPath id="clip0_1_12160">
<rect width="80" height="40" fill="white" transform="translate(0.333984)"/>
</clipPath>
</defs>
</svg>
