<svg width="103" height="50" viewBox="0 0 103 50" fill="none" xmlns="http://www.w3.org/2000/svg">
<g clip-path="url(#clip0_1_5168)">
<path fill-rule="evenodd" clip-rule="evenodd" d="M83.3194 21.4581C83.7092 22.1306 83.8367 22.8958 83.8788 23.756L83.9342 24.9025V32.92L83.9907 34.0678C84.1038 35.9422 85.4862 37.3282 87.3751 37.4461L88.5168 37.5026V24.9025L88.5733 23.756C88.6203 22.9054 88.7466 22.1258 89.1424 21.4484C89.5457 20.7537 90.1248 20.1773 90.8213 19.7771C91.5179 19.3769 92.3074 19.167 93.1108 19.1684C93.9141 19.1699 94.7029 19.3827 95.398 19.7854C96.0931 20.1881 96.67 20.7667 97.0708 21.4629C97.4606 22.1354 97.5822 22.915 97.6291 23.756L97.6856 24.8989V32.92L97.7422 34.0678C97.8601 35.9518 99.2316 37.3378 101.126 37.4461L102.268 37.5026V23.756C102.268 21.3252 101.303 18.9939 99.5844 17.2748C97.8659 15.5556 95.535 14.5893 93.1042 14.5883C91.8032 14.587 90.5169 14.8633 89.3312 15.3987C88.1455 15.9342 87.0877 16.7166 86.2285 17.6936C85.3689 16.717 84.3111 15.9348 83.1255 15.3992C81.9399 14.8635 80.6538 14.5867 79.3528 14.5871C77.4495 14.5871 75.6833 15.1646 74.2204 16.162C73.3277 15.1658 71.3305 14.5871 70.1839 14.5871V37.5026L71.3305 37.4461C73.2482 37.3197 74.6342 35.9711 74.7088 34.0678L74.7702 32.92V24.9025L74.8267 23.756C74.8748 22.8909 74.9951 22.1306 75.3862 21.4532C75.7898 20.7589 76.3686 20.1826 77.0646 19.782C77.7607 19.3813 78.5496 19.1702 79.3528 19.1698C80.1565 19.1699 80.9461 19.3814 81.6423 19.7831C82.3385 20.1847 82.9169 20.7623 83.3194 21.4581ZM4.87363 37.4473L6.02018 37.5026H23.2065L23.1499 36.3597C22.9947 34.4756 21.6605 33.0993 19.7704 32.9765L18.6239 32.92H8.31329L22.0599 19.1686L22.0034 18.0268C21.9143 16.1235 20.5236 14.7484 18.6239 14.6437L17.4773 14.592L0.291016 14.5871L0.347561 15.7337C0.497949 17.5997 1.85144 19.0049 3.72587 19.1132L4.87363 19.1698H15.1842L1.43757 32.9212L1.49412 34.0678C1.60721 35.9566 2.97032 37.3246 4.87363 37.4461V37.4473ZM65.6856 17.9414C66.7497 19.0053 67.5938 20.2684 68.1698 21.6587C68.7457 23.0489 69.0421 24.5389 69.0421 26.0437C69.0421 27.5485 68.7457 29.0385 68.1698 30.4287C67.5938 31.8189 66.7497 33.082 65.6856 34.146C63.5356 36.2942 60.6207 37.5009 57.5815 37.5009C54.5422 37.5009 51.6273 36.2942 49.4774 34.146C45.0031 29.6716 45.0031 22.4157 49.4774 17.9414C50.5406 16.8778 51.8028 16.0341 53.1921 15.4584C54.5814 14.8826 56.0704 14.5862 57.5742 14.5859C59.0805 14.5849 60.5722 14.8808 61.9641 15.4568C63.3559 16.0328 64.6205 16.8775 65.6856 17.9426V17.9414ZM62.4432 21.1862C63.732 22.4759 64.4559 24.2246 64.4559 26.0479C64.4559 27.8712 63.732 29.6199 62.4432 30.9096C61.1535 32.1984 59.4048 32.9223 57.5815 32.9223C55.7582 32.9223 54.0095 32.1984 52.7197 30.9096C51.431 29.6199 50.707 27.8712 50.707 26.0479C50.707 24.2246 51.431 22.4759 52.7197 21.1862C54.0095 19.8974 55.7582 19.1734 57.5815 19.1734C59.4048 19.1734 61.1535 19.8974 62.4432 21.1862ZM33.5267 14.5859C35.0306 14.5863 36.5197 14.883 37.909 15.4589C39.2982 16.0348 40.5605 16.8788 41.6235 17.9426C46.0991 22.4157 46.0991 29.6728 41.6235 34.146C39.4736 36.2942 36.5587 37.5009 33.5195 37.5009C30.4802 37.5009 27.5653 36.2942 25.4154 34.146C20.941 29.6716 20.941 22.4157 25.4154 17.9414C26.4785 16.8778 27.7408 16.0341 29.1301 15.4584C30.5193 14.8826 32.0084 14.5862 33.5122 14.5859H33.5267ZM38.3812 21.1837C39.6703 22.4735 40.3945 24.2225 40.3945 26.0461C40.3945 27.8697 39.6703 29.6186 38.3812 30.9084C37.0914 32.1972 35.3427 32.9211 33.5195 32.9211C31.6962 32.9211 29.9475 32.1972 28.6577 30.9084C27.369 29.6187 26.645 27.87 26.645 26.0467C26.645 24.2234 27.369 22.4747 28.6577 21.1849C29.9475 19.8962 31.6962 19.1722 33.5195 19.1722C35.3427 19.1722 37.0914 19.8962 38.3812 21.1849V21.1837Z" fill="#E6E6E6"/>
</g>
<defs>
<clipPath id="clip0_1_5168">
<rect width="102.083" height="50" fill="white" transform="translate(0.291016)"/>
</clipPath>
</defs>
</svg>
