<svg width="41" height="40" viewBox="0 0 41 40" fill="none" xmlns="http://www.w3.org/2000/svg">
<path fill-rule="evenodd" clip-rule="evenodd" d="M14.083 11.25C14.083 7.79822 16.8812 5 20.333 5C23.7848 5 26.583 7.79822 26.583 11.25C26.583 14.7018 23.7848 17.5 20.333 17.5C16.8812 17.5 14.083 14.7018 14.083 11.25Z" fill="#0048FF"/>
<path fill-rule="evenodd" clip-rule="evenodd" d="M26.583 16.25C26.583 13.4886 28.8216 11.25 31.583 11.25C34.3444 11.25 36.583 13.4886 36.583 16.25C36.583 19.0114 34.3444 21.25 31.583 21.25C28.8216 21.25 26.583 19.0114 26.583 16.25Z" fill="#0048FF"/>
<path fill-rule="evenodd" clip-rule="evenodd" d="M4.08301 16.25C4.08301 13.4886 6.32158 11.25 9.08301 11.25C11.8444 11.25 14.083 13.4886 14.083 16.25C14.083 19.0114 11.8444 21.25 9.08301 21.25C6.32158 21.25 4.08301 19.0114 4.08301 16.25Z" fill="#0048FF"/>
<path fill-rule="evenodd" clip-rule="evenodd" d="M10.8494 25.1959C12.8461 22.074 16.3469 20 20.333 20C24.3196 20 27.8208 22.0745 29.8173 25.197C31.1976 27.3557 31.7947 29.9587 31.5146 32.4965C31.4708 32.8932 31.2404 33.245 30.8943 33.4436C27.782 35.2294 24.1748 36.25 20.333 36.25C16.4912 36.25 12.884 35.2294 9.77175 33.4436C9.42566 33.245 9.19517 32.8931 9.1514 32.4965C8.87123 29.9582 9.46869 27.3548 10.8494 25.1959Z" fill="#0048FF"/>
<path d="M8.80348 23.7561C8.78341 23.787 8.76346 23.8179 8.74363 23.8489C7.13453 26.3648 6.39814 29.3611 6.6242 32.315C5.61079 32.1611 4.6275 31.9135 3.68372 31.5811L3.49212 31.5136C3.14261 31.3905 2.89839 31.0731 2.86899 30.7037L2.85288 30.5012C2.8397 30.3357 2.83301 30.1685 2.83301 30C2.83301 26.6419 5.48142 23.9024 8.80348 23.7561Z" fill="#0048FF"/>
<path d="M34.0424 32.3149C34.2684 29.3617 33.5324 26.366 31.9239 23.8503C31.9038 23.8188 31.8835 23.7875 31.8631 23.7562C35.1849 23.9027 37.833 26.6421 37.833 30C37.833 30.1685 37.8263 30.3357 37.8131 30.5012L37.797 30.7037C37.7676 31.0731 37.5234 31.3905 37.1739 31.5136L36.9823 31.5811C36.0387 31.9134 35.0556 32.161 34.0424 32.3149Z" fill="#0048FF"/>
</svg>
